<svg width="59" height="46" viewBox="0 0 59 46" fill="none" xmlns="http://www.w3.org/2000/svg">
<circle cx="40.3199" cy="13.6705" r="6.50199" fill="#FACB23"/>
<rect x="43.8802" y="6.24086" width="5.47536" height="2.05326" rx="1.02663" transform="rotate(-57.0016 43.8802 6.24086)" fill="#FACB23"/>
<rect x="43.8802" y="6.24086" width="5.47536" height="2.05326" rx="1.02663" transform="rotate(-57.0016 43.8802 6.24086)" fill="#FACB23"/>
<rect x="43.8802" y="6.24086" width="5.47536" height="2.05326" rx="1.02663" transform="rotate(-57.0016 43.8802 6.24086)" fill="#FACB23"/>
<rect x="43.8802" y="6.24086" width="5.47536" height="2.05326" rx="1.02663" transform="rotate(-57.0016 43.8802 6.24086)" fill="#FACB23"/>
<rect x="48.5961" y="12.7568" width="5.47536" height="2.05326" rx="1.02663" fill="#FACB23"/>
<rect x="48.5961" y="12.7568" width="5.47536" height="2.05326" rx="1.02663" fill="#FACB23"/>
<rect x="48.5961" y="12.7568" width="5.47536" height="2.05326" rx="1.02663" fill="#FACB23"/>
<rect x="48.5961" y="12.7568" width="5.47536" height="2.05326" rx="1.02663" fill="#FACB23"/>
<rect x="47.8252" y="17.5099" width="5.47536" height="2.05326" rx="1.02663" transform="rotate(33.213 47.8252 17.5099)" fill="#FACB23"/>
<rect x="47.8252" y="17.5099" width="5.47536" height="2.05326" rx="1.02663" transform="rotate(33.213 47.8252 17.5099)" fill="#FACB23"/>
<rect x="47.8252" y="17.5099" width="5.47536" height="2.05326" rx="1.02663" transform="rotate(33.213 47.8252 17.5099)" fill="#FACB23"/>
<rect x="47.8252" y="17.5099" width="5.47536" height="2.05326" rx="1.02663" transform="rotate(33.213 47.8252 17.5099)" fill="#FACB23"/>
<rect x="45.4764" y="20.4423" width="5.47536" height="2.05326" rx="1.02663" transform="rotate(58.9749 45.4764 20.4423)" fill="#FACB23"/>
<rect x="45.4764" y="20.4423" width="5.47536" height="2.05326" rx="1.02663" transform="rotate(58.9749 45.4764 20.4423)" fill="#FACB23"/>
<rect x="45.4764" y="20.4423" width="5.47536" height="2.05326" rx="1.02663" transform="rotate(58.9749 45.4764 20.4423)" fill="#FACB23"/>
<rect x="45.4764" y="20.4423" width="5.47536" height="2.05326" rx="1.02663" transform="rotate(58.9749 45.4764 20.4423)" fill="#FACB23"/>
<rect x="41.2559" y="22.2057" width="5.47536" height="2.05326" rx="1.02663" transform="rotate(90.4701 41.2559 22.2057)" fill="#FACB23"/>
<rect x="41.2559" y="22.2057" width="5.47536" height="2.05326" rx="1.02663" transform="rotate(90.4701 41.2559 22.2057)" fill="#FACB23"/>
<rect x="41.2559" y="22.2057" width="5.47536" height="2.05326" rx="1.02663" transform="rotate(90.4701 41.2559 22.2057)" fill="#FACB23"/>
<rect x="41.2559" y="22.2057" width="5.47536" height="2.05326" rx="1.02663" transform="rotate(90.4701 41.2559 22.2057)" fill="#FACB23"/>
<rect x="47.0618" y="8.89445" width="5.47536" height="2.05326" rx="1.02663" transform="rotate(-28.5405 47.0618 8.89445)" fill="#FACB23"/>
<rect x="47.0618" y="8.89445" width="5.47536" height="2.05326" rx="1.02663" transform="rotate(-28.5405 47.0618 8.89445)" fill="#FACB23"/>
<rect x="47.0618" y="8.89445" width="5.47536" height="2.05326" rx="1.02663" transform="rotate(-28.5405 47.0618 8.89445)" fill="#FACB23"/>
<rect x="47.0618" y="8.89445" width="5.47536" height="2.05326" rx="1.02663" transform="rotate(-28.5405 47.0618 8.89445)" fill="#FACB23"/>
<rect x="31.8943" y="24.9141" width="5.47536" height="2.05326" rx="1.02663" transform="rotate(-57.0016 31.8943 24.9141)" fill="#FACB23"/>
<rect x="31.8943" y="24.9141" width="5.47536" height="2.05326" rx="1.02663" transform="rotate(-57.0016 31.8943 24.9141)" fill="#FACB23"/>
<rect x="31.8943" y="24.9141" width="5.47536" height="2.05326" rx="1.02663" transform="rotate(-57.0016 31.8943 24.9141)" fill="#FACB23"/>
<rect x="31.8943" y="24.9141" width="5.47536" height="2.05326" rx="1.02663" transform="rotate(-57.0016 31.8943 24.9141)" fill="#FACB23"/>
<rect x="26.4074" y="12.8698" width="5.47536" height="2.05326" rx="1.02663" fill="#FACB23"/>
<rect x="26.4074" y="12.8698" width="5.47536" height="2.05326" rx="1.02663" fill="#FACB23"/>
<rect x="26.4074" y="12.8698" width="5.47536" height="2.05326" rx="1.02663" fill="#FACB23"/>
<rect x="26.4074" y="12.8698" width="5.47536" height="2.05326" rx="1.02663" fill="#FACB23"/>
<rect x="29.1971" y="5.45413" width="5.47536" height="2.05326" rx="1.02663" transform="rotate(33.2137 29.1971 5.45413)" fill="#FACB23"/>
<rect x="29.1971" y="5.45413" width="5.47536" height="2.05326" rx="1.02663" transform="rotate(33.2137 29.1971 5.45413)" fill="#FACB23"/>
<rect x="29.1971" y="5.45413" width="5.47536" height="2.05326" rx="1.02663" transform="rotate(33.2137 29.1971 5.45413)" fill="#FACB23"/>
<rect x="29.1971" y="5.45413" width="5.47536" height="2.05326" rx="1.02663" transform="rotate(33.2137 29.1971 5.45413)" fill="#FACB23"/>
<rect x="33.9395" y="1.48837" width="5.47536" height="2.05326" rx="1.02663" transform="rotate(58.9756 33.9395 1.48837)" fill="#FACB23"/>
<rect x="33.9395" y="1.48837" width="5.47536" height="2.05326" rx="1.02663" transform="rotate(58.9756 33.9395 1.48837)" fill="#FACB23"/>
<rect x="33.9395" y="1.48837" width="5.47536" height="2.05326" rx="1.02663" transform="rotate(58.9756 33.9395 1.48837)" fill="#FACB23"/>
<rect x="33.9395" y="1.48837" width="5.47536" height="2.05326" rx="1.02663" transform="rotate(58.9756 33.9395 1.48837)" fill="#FACB23"/>
<rect x="41.3207" y="0.0168762" width="5.47536" height="2.05326" rx="1.02663" transform="rotate(90.4709 41.3207 0.0168762)" fill="#FACB23"/>
<rect x="41.3207" y="0.0168762" width="5.47536" height="2.05326" rx="1.02663" transform="rotate(90.4709 41.3207 0.0168762)" fill="#FACB23"/>
<rect x="41.3207" y="0.0168762" width="5.47536" height="2.05326" rx="1.02663" transform="rotate(90.4709 41.3207 0.0168762)" fill="#FACB23"/>
<rect x="41.3207" y="0.0168762" width="5.47536" height="2.05326" rx="1.02663" transform="rotate(90.4709 41.3207 0.0168762)" fill="#FACB23"/>
<rect x="27.6256" y="19.599" width="5.47536" height="2.05326" rx="1.02663" transform="rotate(-28.5405 27.6256 19.599)" fill="#FACB23"/>
<rect x="27.6256" y="19.599" width="5.47536" height="2.05326" rx="1.02663" transform="rotate(-28.5405 27.6256 19.599)" fill="#FACB23"/>
<rect x="27.6256" y="19.599" width="5.47536" height="2.05326" rx="1.02663" transform="rotate(-28.5405 27.6256 19.599)" fill="#FACB23"/>
<rect x="27.6256" y="19.599" width="5.47536" height="2.05326" rx="1.02663" transform="rotate(-28.5405 27.6256 19.599)" fill="#FACB23"/>
<mask id="path-14-inside-1_3_22" fill="white">
<path fill-rule="evenodd" clip-rule="evenodd" d="M10.2861 46C10.2831 46 10.28 46 10.277 46C10.274 46 10.2709 46 10.2679 46H9.28241V45.954C4.07325 45.4699 0 41.2226 0 36.0545C0 30.5835 4.5649 26.1442 10.2098 26.1092C10.0363 25.2506 9.94548 24.3639 9.94548 23.4569C9.94548 15.7671 16.4762 9.53322 24.5322 9.53322C31.5692 9.53322 37.4423 14.2897 38.8155 20.6183C40.3084 19.8884 41.9864 19.4787 43.7601 19.4787C49.9852 19.4787 55.0317 24.5251 55.0317 30.7502C55.0317 32.0883 54.7985 33.372 54.3706 34.5627C56.7113 35.4839 58.3469 37.5864 58.3469 40.0327C58.3469 43.3284 55.3784 46 51.7165 46C51.7165 46 51.7165 46 51.7165 46H10.2861Z"/>
</mask>
<path fill-rule="evenodd" clip-rule="evenodd" d="M10.2861 46C10.2831 46 10.28 46 10.277 46C10.274 46 10.2709 46 10.2679 46H9.28241V45.954C4.07325 45.4699 0 41.2226 0 36.0545C0 30.5835 4.5649 26.1442 10.2098 26.1092C10.0363 25.2506 9.94548 24.3639 9.94548 23.4569C9.94548 15.7671 16.4762 9.53322 24.5322 9.53322C31.5692 9.53322 37.4423 14.2897 38.8155 20.6183C40.3084 19.8884 41.9864 19.4787 43.7601 19.4787C49.9852 19.4787 55.0317 24.5251 55.0317 30.7502C55.0317 32.0883 54.7985 33.372 54.3706 34.5627C56.7113 35.4839 58.3469 37.5864 58.3469 40.0327C58.3469 43.3284 55.3784 46 51.7165 46C51.7165 46 51.7165 46 51.7165 46H10.2861Z" fill="url(#paint0_linear_3_22)"/>
<path d="M9.28241 46H8.28241V47H9.28241V46ZM9.28241 45.954H10.2824V45.0426L9.37494 44.9583L9.28241 45.954ZM10.2098 26.1092L10.216 27.1092L11.4306 27.1017L11.19 25.9112L10.2098 26.1092ZM38.8155 20.6183L37.8383 20.8303L38.1088 22.077L39.2548 21.5167L38.8155 20.6183ZM54.3706 34.5627L53.4295 34.2245L53.1013 35.1378L54.0044 35.4932L54.3706 34.5627ZM10.277 47C10.2789 47 10.2807 47 10.2822 47C10.2837 47 10.285 47 10.2861 47V45C10.2842 45 10.2824 45 10.2809 45C10.2794 45 10.2782 45 10.277 45V47ZM10.2679 47C10.2691 47 10.2703 47 10.2718 47C10.2733 47 10.2751 47 10.277 47V45C10.2759 45 10.2746 45 10.2731 45C10.2716 45 10.2698 45 10.2679 45V47ZM10.2679 45H9.28241V47H10.2679V45ZM10.2824 46V45.954H8.28241V46H10.2824ZM-1 36.0545C-1 41.7704 3.49836 46.4208 9.18987 46.9497L9.37494 44.9583C4.64813 44.519 1 40.6747 1 36.0545H-1ZM10.2036 25.1093C4.04008 25.1474 -1 30.0029 -1 36.0545H1C1 31.164 5.08973 27.141 10.216 27.1092L10.2036 25.1093ZM8.94548 23.4569C8.94548 24.4308 9.04306 25.3839 9.22962 26.3073L11.19 25.9112C11.0296 25.1173 10.9455 24.2969 10.9455 23.4569H8.94548ZM24.5322 8.53322C15.9682 8.53322 8.94548 15.1714 8.94548 23.4569H10.9455C10.9455 16.3627 16.9841 10.5332 24.5322 10.5332V8.53322ZM39.7928 20.4062C38.3153 13.5971 32.0182 8.53322 24.5322 8.53322V10.5332C31.1201 10.5332 36.5693 14.9823 37.8383 20.8303L39.7928 20.4062ZM43.7601 18.4787C41.8309 18.4787 40.0029 18.9246 38.3763 19.7199L39.2548 21.5167C40.6139 20.8522 42.142 20.4787 43.7601 20.4787V18.4787ZM56.0317 30.7502C56.0317 23.9729 50.5375 18.4787 43.7601 18.4787V20.4787C49.4329 20.4787 54.0317 25.0774 54.0317 30.7502H56.0317ZM55.3117 34.9009C55.778 33.6032 56.0317 32.2052 56.0317 30.7502H54.0317C54.0317 31.9714 53.819 33.1407 53.4295 34.2245L55.3117 34.9009ZM59.3469 40.0327C59.3469 37.1131 57.3983 34.6797 54.7368 33.6322L54.0044 35.4932C56.0242 36.2882 57.3469 38.0597 57.3469 40.0327H59.3469ZM51.7165 47C55.8289 47 59.3469 43.9771 59.3469 40.0327H57.3469C57.3469 42.6796 54.9278 45 51.7165 45V47ZM51.7165 47C51.7165 47 51.7165 47 51.7165 47C51.7165 47 51.7165 47 51.7165 47C51.7165 47 51.7165 47 51.7165 47H51.7165H51.7165C51.7165 47 51.7165 47 51.7165 47C51.7165 47 51.7165 47 51.7165 47C51.7165 47 51.7165 47 51.7165 47C51.7165 47 51.7165 47 51.7165 47H51.7165H51.7165C51.7165 47 51.7165 47 51.7165 47C51.7165 47 51.7165 47 51.7165 47C51.7165 47 51.7165 47 51.7165 47V45C51.7165 45 51.7165 45 51.7165 45C51.7165 45 51.7165 45 51.7165 45C51.7165 45 51.7165 45 51.7165 45H51.7165H51.7165C51.7165 45 51.7165 45 51.7165 45C51.7165 45 51.7165 45 51.7165 45C51.7165 45 51.7165 45 51.7165 45C51.7165 45 51.7165 45 51.7165 45H51.7165H51.7165C51.7165 45 51.7165 45 51.7165 45C51.7165 45 51.7165 45 51.7165 45C51.7165 45 51.7165 45 51.7165 45V47ZM51.7165 45H10.2861V47H51.7165V45Z" fill="#3D4151" mask="url(#path-14-inside-1_3_22)"/>
<defs>
<linearGradient id="paint0_linear_3_22" x1="19.5" y1="13" x2="34" y2="40.5" gradientUnits="userSpaceOnUse">
<stop stop-color="#E7F2FC"/>
<stop offset="0.270833" stop-color="#A7D2F7"/>
<stop offset="1" stop-color="#4A9AE4"/>
</linearGradient>
</defs>
</svg>
